<svg xmlns="http://www.w3.org/2000/svg" viewBox="0 0 512 512"><path d="M440.437 301.781L266.656 475.584V10.667C266.656 4.776 261.88 0 255.989 0s-10.667 4.776-10.667 10.667v464.917L71.541 301.781c-4.237-4.093-10.99-3.975-15.083.262-3.992 4.134-3.992 10.687 0 14.82l192 192c4.16 4.171 10.914 4.179 15.085.019l.019-.019 192-192c4.093-4.237 3.975-10.99-.262-15.083a10.666 10.666 0 00-14.821 0l-.042.001z" fill="#ffc107"/><path d="M255.989 512a10.663 10.663 0 01-7.552-3.115l-192-192c-4.093-4.237-3.975-10.99.262-15.083 4.134-3.992 10.687-3.992 14.82 0L255.988 486.25l184.448-184.448c4.237-4.093 10.99-3.975 15.083.262a10.666 10.666 0 010 14.821l-192 192a10.664 10.664 0 01-7.53 3.115z"/><path d="M255.989 512c-5.891 0-10.667-4.776-10.667-10.667V10.667C245.323 4.776 250.098 0 255.989 0s10.667 4.776 10.667 10.667v490.667c0 5.89-4.776 10.666-10.667 10.666z"/></svg>