<svg xmlns="http://www.w3.org/2000/svg" width="52.111" height="52.111"><path data-name="Icon awesome-twitter-square" d="M46.527 0H5.583A5.585 5.585 0 000 5.583v40.944a5.585 5.585 0 005.583 5.583h40.944a5.585 5.585 0 005.583-5.583V5.583A5.585 5.585 0 0046.527 0zm-5.688 18.471c.023.326.023.663.023.989 0 10.085-7.677 21.7-21.7 21.7a21.6 21.6 0 01-11.718-3.41 16.072 16.072 0 001.838.093 15.3 15.3 0 009.468-3.257 7.639 7.639 0 01-7.13-5.292 8.222 8.222 0 003.443-.14 7.629 7.629 0 01-6.107-7.491v-.093a7.624 7.624 0 003.443.965A7.613 7.613 0 019 16.18a7.534 7.534 0 011.035-3.85 21.661 21.661 0 0015.726 7.979 7.645 7.645 0 0113.016-6.967 14.949 14.949 0 004.839-1.838 7.609 7.609 0 01-3.35 4.2 15.181 15.181 0 004.4-1.186 16.058 16.058 0 01-3.827 3.953z" fill="#18a063"/></svg>