<svg xmlns="http://www.w3.org/2000/svg" width="54.924" height="54.911"><path data-name="Icon awesome-instagram" d="M27.468 13.377a14.079 14.079 0 1014.078 14.078 14.056 14.056 0 00-14.078-14.078zm0 23.231a9.153 9.153 0 119.153-9.153 9.17 9.17 0 01-9.153 9.153zm17.937-23.807a3.284 3.284 0 11-3.284-3.284 3.276 3.276 0 013.284 3.284zm9.324 3.333c-.208-4.4-1.213-8.3-4.436-11.505S43.188.413 38.789.193c-4.534-.257-18.122-.257-22.656 0C11.746.401 7.85 1.406 4.628 4.616S.413 11.723.193 16.121c-.257 4.534-.257 18.122 0 22.656.212 4.399 1.212 8.295 4.435 11.505s7.107 4.215 11.505 4.436c4.534.257 18.122.257 22.656 0 4.4-.208 8.3-1.213 11.505-4.436s4.215-7.107 4.436-11.505c.257-4.534.257-18.11 0-22.643zm-5.856 27.507a9.267 9.267 0 01-5.22 5.22c-3.615 1.434-12.192 1.1-16.186 1.1s-12.584.319-16.186-1.1a9.267 9.267 0 01-5.22-5.22c-1.434-3.615-1.1-12.192-1.1-16.186s-.319-12.584 1.1-16.186a9.267 9.267 0 015.22-5.22c3.615-1.434 12.192-1.1 16.186-1.1s12.584-.319 16.186 1.1a9.267 9.267 0 015.22 5.22c1.434 3.615 1.1 12.192 1.1 16.186s.332 12.584-1.1 16.186z" fill="#18a063"/></svg>