<svg width="53" height="34" viewBox="0 0 53 34" fill="none" xmlns="http://www.w3.org/2000/svg">
<path d="M10.6063 24.2928H4.11598L1.01393 23.7478L0.568604 20.293H11.4603L10.6063 24.2928Z" fill="#21B370"/>
<path d="M1.13717 20.793L1.46277 23.319L4.15957 23.7928H10.2018L10.8423 20.793H1.13717ZM0 19.793H12.0784L11.0108 24.7928H4.07236L0.56505 24.1766L0 19.793Z" fill="#21B370"/>
<path d="M34 1.79297H1V17.793H34V1.79297Z" fill="#21B370"/>
<path d="M35.04 0.903992H44.555L47.7 12.166L52.737 14.611L52.643 24.793H48.193L46.933 21.205L44.974 19.505H41.407L39.268 20.283L37.985 22.037L37.559 24.793H20.137L19.177 20.981L35.04 20.834V0.903992Z" fill="#21B370"/>
<path d="M15 24C12.7944 24 11 25.7944 11 28C11 30.2056 12.7944 32 15 32C17.2056 32 19 30.2056 19 28C19 25.7944 17.2056 24 15 24ZM15 22C18.3137 22 21 24.6863 21 28C21 31.3137 18.3137 34 15 34C11.6863 34 9 31.3137 9 28C9 24.6863 11.6863 22 15 22Z" fill="#21B370"/>
<path d="M43 24C40.7944 24 39 25.7944 39 28C39 30.2056 40.7944 32 43 32C45.2056 32 47 30.2056 47 28C47 25.7944 45.2056 24 43 24ZM43 22C46.3137 22 49 24.6863 49 28C49 31.3137 46.3137 34 43 34C39.6863 34 37 31.3137 37 28C37 24.6863 39.6863 22 43 22Z" fill="#21B370"/>
</svg>
