<svg xmlns="http://www.w3.org/2000/svg" width="32.637" height="24.563" viewBox="0 0 32.637 24.563">
  <path id="path" d="M75.931,745.678a7.106,7.106,0,0,1,4.875-1.8,6.546,6.546,0,0,1,4.74,1.8,5.719,5.719,0,0,1,0,8.507,6.675,6.675,0,0,1-4.74,1.678,7.629,7.629,0,0,1-4.875-1.678,5.334,5.334,0,0,1-2.031-4.194A5.4,5.4,0,0,1,75.931,745.678Zm1.49,7.189a5.383,5.383,0,0,0,6.771,0,3.99,3.99,0,0,0,0-5.991,5.383,5.383,0,0,0-6.771,0,3.99,3.99,0,0,0,0,5.991Zm11.1-10.784,2.979,2.756v7.429H88.8v-5.991l-4.334-3.355a1.668,1.668,0,0,1-.813-1.677,3.512,3.512,0,0,1,.813-1.677l3.792-3.355c.271-.479.948-.719,1.9-.719a3.585,3.585,0,0,1,2.167.719l2.573,2.277a7.106,7.106,0,0,0,4.875,1.8v2.4a10.058,10.058,0,0,1-6.907-2.516l-1.083-.958Zm8.261-6.71a2.859,2.859,0,0,1-3.792,0,2.138,2.138,0,0,1,0-3.355,2.86,2.86,0,0,1,3.792,0,2.138,2.138,0,0,1,0,3.355Zm-1.9,10.3a6.772,6.772,0,0,1,4.74-1.8,7.106,7.106,0,0,1,4.875,1.8,5.567,5.567,0,0,1,2.031,4.313,5.168,5.168,0,0,1-2.031,4.194,7.727,7.727,0,0,1-9.615,0,5.2,5.2,0,0,1-1.9-4.194A5.275,5.275,0,0,1,94.891,745.678Zm1.354,7.189a5.383,5.383,0,0,0,6.771,0,3.99,3.99,0,0,0,0-5.991,5.383,5.383,0,0,0-6.771,0,3.749,3.749,0,0,0-1.354,3A4.221,4.221,0,0,0,96.245,752.867Z" transform="translate(-73.9 -731.3)" fill="#18a063"/>
</svg>
