<svg xmlns="http://www.w3.org/2000/svg" width="24.892" height="23.037" viewBox="0 0 24.892 23.037">
  <path id="path" d="M172.888,736.24l2.9,8.639V756.4a1.333,1.333,0,0,1-.415,1.008,1.232,1.232,0,0,1-.968.432h-1.383a1.232,1.232,0,0,1-.968-.432,1.333,1.333,0,0,1-.415-1.008v-1.44H155.049v1.44a1.333,1.333,0,0,1-.415,1.008,1.233,1.233,0,0,1-.968.432h-1.383a1.233,1.233,0,0,1-.968-.432,1.333,1.333,0,0,1-.415-1.008V744.879l2.9-8.639a1.876,1.876,0,0,1,2.074-1.44H171.09A1.923,1.923,0,0,1,172.888,736.24Zm-19.222,7.2h19.36l-2.074-6.479H155.74Zm.553,6.623a1.848,1.848,0,0,0,1.521.576,2.266,2.266,0,0,0,1.521-3.743,1.848,1.848,0,0,0-1.521-.576,2.266,2.266,0,0,0-1.521,3.744Zm15.212,0a1.848,1.848,0,0,0,1.521.576,2.266,2.266,0,0,0,1.521-3.743,1.848,1.848,0,0,0-1.521-.576,2.266,2.266,0,0,0-1.521,3.744Z" transform="translate(-150.9 -734.8)" fill="#21b370"/>
</svg>
