<svg id="Group_11140" data-name="Group 11140" xmlns="http://www.w3.org/2000/svg" width="52.741" height="33.096" viewBox="0 0 52.741 33.096">
  <rect id="Rectangle_3689" data-name="Rectangle 3689" width="33" height="16" transform="translate(1 0.889)" fill="#21b370"/>
  <g id="Path_10628" data-name="Path 10628" transform="translate(0 18.889)" fill="#21b370">
    <path d="M 10.6063117980957 4.499818325042725 L 4.115967273712158 4.499818325042725 L 1.013921499252319 3.954828262329102 L 0.5685938596725464 0.4999984502792358 L 11.46033573150635 0.4999984502792358 L 10.6063117980957 4.499818325042725 Z" stroke="none"/>
    <path d="M 1.137172698974609 0.9999983310699463 L 1.462778091430664 3.526026248931885 L 4.159570217132568 3.999818325042725 L 10.20179557800293 3.999818325042725 L 10.84230422973633 0.9999983310699463 L 1.137172698974609 0.9999983310699463 M 4.76837158203125e-06 -1.430511474609375e-06 L 12.07836437225342 -1.430511474609375e-06 L 11.01082420349121 4.999818325042725 L 4.072364807128906 4.999818325042725 L 0.5650548934936523 4.383628368377686 L 4.76837158203125e-06 -1.430511474609375e-06 Z" stroke="none" fill="#21b370"/>
  </g>
  <path id="Path_10629" data-name="Path 10629" d="M16.04.111h9.515L28.7,11.373l5.037,2.445L33.643,24h-4.45l-1.26-3.588-1.959-1.7H22.407l-2.139.778-1.283,1.754L18.559,24H1.137l-.96-3.812,15.863-.147Z" transform="translate(19 -0.111)" fill="#21b370"/>
  <g id="Path_10630" data-name="Path 10630" transform="translate(9 21.096)" fill="none">
    <path d="M6,0A6,6,0,1,1,0,6,6,6,0,0,1,6,0Z" stroke="none"/>
    <path d="M 6 2 C 3.794389724731445 2 2 3.794389724731445 2 6 C 2 8.205610275268555 3.794389724731445 10 6 10 C 8.205610275268555 10 10 8.205610275268555 10 6 C 10 3.794389724731445 8.205610275268555 2 6 2 M 6 0 C 9.31371021270752 0 12 2.68628978729248 12 6 C 12 9.31371021270752 9.31371021270752 12 6 12 C 2.68628978729248 12 0 9.31371021270752 0 6 C 0 2.68628978729248 2.68628978729248 0 6 0 Z" stroke="none" fill="#21b370"/>
  </g>
  <g id="Path_10631" data-name="Path 10631" transform="translate(37 21.096)" fill="none">
    <path d="M6,0A6,6,0,1,1,0,6,6,6,0,0,1,6,0Z" stroke="none"/>
    <path d="M 6 2 C 3.794389724731445 2 2 3.794389724731445 2 6 C 2 8.205610275268555 3.794389724731445 10 6 10 C 8.205610275268555 10 10 8.205610275268555 10 6 C 10 3.794389724731445 8.205610275268555 2 6 2 M 6 0 C 9.31371021270752 0 12 2.68628978729248 12 6 C 12 9.31371021270752 9.31371021270752 12 6 12 C 2.68628978729248 12 0 9.31371021270752 0 6 C 0 2.68628978729248 2.68628978729248 0 6 0 Z" stroke="none" fill="#21b370"/>
  </g>
</svg>
